# xmcd
#
# Track frame offsets:
#	150
#	15582
#	29706
#	42931
#	52695
#	64028
#	76066
#	89560
#	101356
#	113390
#	126216
#	138066
#	150869
#	163774
#	175615
#	187468
#	201551
#	212148
#	225416
#	237404
#	248502
#	262392
#	274602
#	286489
#
# Disc length: 3993 seconds
#
# Revision: 1
# Processed by: cddbd v1.5.2PL0 Copyright (c) Steve Scherf et al.
# Submitted via: audiograbber 1.83.01
#
DISCID=470f9718
DTITLE=Verschiedenes - Yodeling Memories
DYEAR=2008
DGENRE=Country Boogie
TTITLE0=Jimmie Rodgers - T For Texas (Blue Yodel No.1)
TTITLE1=Wilf Carter (Montana Slim) - My Swiss Moonlight Lullabye
TTITLE2=Patsy Montana - Cowboy Rhythm
TTITLE3=Rex Allen - Happy Yodelin' Man
TTITLE4=Elton Britt - That's How The Yodel Was Born
TTITLE5=Roy Rogers - Heading For Texas And Home
TTITLE6=Goebel Reeves (The Texas Drifter) - The Yodelin' Teacher
TTITLE7=Gene Autry - Hobo Bill's Last Ride
TTITLE8=Bill Monroe and His Blue Grass Blues - Mule Skinner Blues (Blue Yodel No.
TTITLE8=8)
TTITLE9=Emmett Miller - Lovesick Blues
TTITLE10=Slim Whitman - There's a Rainbow in Every Teardrop
TTITLE11=J. E. Manier's Mountaineers - Yodelin' Mountaineer
TTITLE12=Wilf Carter (Montana Slim) - Yodeling Memories
TTITLE13=Gene Autry - Blue Yodel No.5
TTITLE14=Rosalie Allen - Yodelin' Boogie
TTITLE15=Slim Clark - Take me Back to Old Montana
TTITLE16=Hank Locklin - Born to Ramble
TTITLE17=Frankie Marvin - I'm Gonna Yodel my Way to Heaven
TTITLE18=Hank Snow - Wanderin' on
TTITLE19=Riley Puckett - Peach Pickin' Time Down in Georgia
TTITLE20=Cliff Carlisle - Hobo Blues
TTITLE21=Tex Morton - My Sweatheart's in Love With a Swiss Mountaineer
TTITLE22=Jimmie Rgers - Standin' on The Corner (Blue Yodel No.9)
TTITLE23=The DeZurik Sisters - Go to Sleep my Darling
EXTD=Country Stars CTS 55551
EXTT0=
EXTT1=
EXTT2=
EXTT3=
EXTT4=
EXTT5=
EXTT6=
EXTT7=
EXTT8=
EXTT9=
EXTT10=
EXTT11=
EXTT12=
EXTT13=
EXTT14=
EXTT15=
EXTT16=
EXTT17=
EXTT18=
EXTT19=
EXTT20=
EXTT21=
EXTT22=
EXTT23=
PLAYORDER=
